:SAMPLES-PER-SECOND 30
:FULLY-SPECIFIED
:DEGREES
260
root  13.1262216 38.15866606 -3.464600045 -3.436019897 -56.17440033 -6.720689774
lowerback  7.097310066 3.799489975 -1.570070028
upperback  2.585489988 4.841599941 -2.584589958
thorax  -1.203130007 2.396610022 -2.167030096
lowerneck  1.248059988 7.314960003 -4.270249844
upperneck  18.65550041 8.351240158 10.08069992
head  4.719649792 4.296110153 4.101309776
lclavicle  0 -9.442270133e-015 7.951389973e-016
lhumerus  -5.070390224 -17.45960045 77.561203
lradius  2.879531591e-031 -2.043805729e-031 144.6340027
lwrist  -7.062250077e-031 -3.531125038e-031 2.99236989
lhand  -1.496451383e-031 -27.76390076 20.11240005
lfingers  90 7.125020027 -90
lthumb  89.89689403 5.08795885 91.16245106
rclavicle  0 -9.442270133e-015 7.951389973e-016
rhumerus  -13.39140034 19.58069992 -74.61660004
rradius  -2.614424216e-031 2.373526923e-031 137.7649994
rwrist  7.062250077e-031 -3.531125038e-031 3.164659977
rhand  -7.920061211e-032 -33.2840004 9.303460121
rfingers  -90 -7.125020027 -90
rthumb  -92.93752616 -24.25625642 -97.11982154
rfemur  0.9512770176 5.823520184 15.66619968
rtibia  -0 0 58.93740082
rfoot  -9.156593362e-032 -15.40040016 -6.546989918
rtoes  5.373923086 19.29304026 -105.8922705
lfemur  -22.54470062 -0.06230679899 0.8865950108
ltibia  -0 0 57.40309906
lfoot  4.48413649e-032 -10.15380001 6.159659863
ltoes  -4.250644065 -19.5611806 -102.515957
261
root  13.1386449 37.96199889 -3.57733336 -2.728980064 -56.91220093 -6.734630108
lowerback  7.282899857 3.876460075 -1.479590058
upperback  2.1900599 4.939209938 -2.526050091
thorax  -1.709050059 2.446049929 -2.197340012
lowerneck  0.9494199753 7.304470062 -4.681789875
upperneck  18.29260063 8.38932991 10.13329983
head  4.632500172 4.301070213 4.182400227
lclavicle  0 -9.442270133e-015 7.951389973e-016
lhumerus  -7.075590134 -17.27090073 78.16639709
lradius  2.892881549e-031 -2.024865521e-031 145.0099945
lwrist  -3.531125038e-031 -0 2.771430016
lhand  -1.496451383e-031 -27.76390076 20.11240005
lfingers  90 7.125020027 -90
lthumb  89.89689403 5.08795885 91.16245106
rclavicle  0 -9.442270133e-015 7.951389973e-016
rhumerus  -13.88560009 19.62529945 -75.38140106
rradius  -2.61007029e-031 2.378313923e-031 137.6600037
rwrist  3.531125038e-031 -3.531125038e-031 3.277299881
rhand  -7.920061211e-032 -33.2840004 9.303460121
rfingers  -90 -7.125020027 -90
rthumb  -92.93752616 -24.25625642 -97.11982154
rfemur  1.441120028 6.048530102 16.14979935
rtibia  -0 0 57.47919846
rfoot  -0 -20.25189972 -9.066550255
rtoes  5.373923086 19.29304026 -105.8922705
lfemur  -23.92860031 0.8299229741 1.467610002
ltibia  -0 0 58.81740189
lfoot  4.475646284e-032 -9.527819633 5.120110035
ltoes  -4.250644065 -19.5611806 -102.515957
262
root  13.16344494 37.79488811 -3.676599968 -2.131999969 -57.76620102 -6.728660107
lowerback  7.26639986 4.035329819 -1.020009995
upperback  2.12477994 5.181419849 -2.62293005
thorax  -1.711210012 2.567709923 -2.572740078
lowerneck  0.5652520061 7.212329865 -5.281030178
upperneck  17.53910065 8.344349861 10.29570007
head  4.432089806 4.264550209 4.314489841
lclavicle  0 -9.442270133e-015 7.951389973e-016
lhumerus  -8.471940041 -17.13290024 78.40529633
lradius  2.904040224e-031 -2.008829116e-031 145.3269958
lwrist  -7.062250077e-031 -0 2.852149963
lhand  -1.496451383e-031 -27.76390076 20.11240005
lfingers  90 7.125020027 -90
lthumb  89.89689403 5.08795885 91.16245106
rclavicle  0 -9.442270133e-015 7.951389973e-016
rhumerus  -13.76350021 19.19499969 -75.94319916
rradius  -2.602002509e-031 2.387137822e-031 137.4660034
rwrist  7.062250077e-031 -7.062250077e-031 3.372679949
rhand  -7.920061211e-032 -33.2840004 9.303460121
rfingers  -90 -7.125020027 -90
rthumb  -92.93752616 -24.25625642 -97.11982154
rfemur  1.88815999 6.399950027 16.54330063
rtibia  -0 0 55.89390182
rfoot  -0 -24.83139992 -9.051520348
rtoes  5.373923086 19.29304026 -105.8922705
lfemur  -25.3423996 1.591030002 2.002779961
ltibia  -0 0 60.39110184
lfoot  4.461349276e-032 -8.363269806 4.272749901
ltoes  -4.250644065 -19.5611806 -102.515957
263
root  13.20373355 37.72088899 -3.766444349 -1.642689943 -58.55110168 -6.752810001
lowerback  7.47536993 4.083620071 -0.567414999
upperback  2.161550045 5.273519993 -2.637909889
thorax  -1.743139982 2.613549948 -2.860820055
lowerneck  -0.05137360096 7.205500126 -5.945690155
upperneck  16.99239922 8.442500114 10.30140018
head  4.329539776 4.292469978 4.429069996
lclavicle  0 -9.442270133e-015 7.951389973e-016
lhumerus  -9.863820076 -16.72809982 78.50859833
lradius  2.916083483e-031 -1.991306395e-031 145.6719971
lwrist  -3.531125038e-031 -1.765562519e-031 3.109730005
lhand  -1.496451383e-031 -27.76390076 20.11240005
lfingers  90 7.125020027 -90
lthumb  89.89689403 5.08795885 91.16245106
rclavicle  0 -9.442270133e-015 7.951389973e-016
rhumerus  -13.23760033 18.99220085 -76.3015976
rradius  -2.590640649e-031 2.399463495e-031 137.1940002
rwrist  3.531125038e-031 -7.062250077e-031 3.453759909
rhand  -7.920061211e-032 -33.2840004 9.303460121
rfingers  -90 -7.125020027 -90
rthumb  -92.93752616 -24.25625642 -97.11982154
rfemur  2.099950075 6.400519848 16.80680084
rtibia  -0 0 54.34260178
rfoot  -0 -27.19860077 -10.61209965
rtoes  5.373923086 19.29304026 -105.8922705
lfemur  -26.78790092 2.381659985 2.472640038
ltibia  -0 0 62.10380173
lfoot  8.889785913e-032 -6.769350052 3.526979923
ltoes  -4.250644065 -19.5611806 -102.515957
